# xmcd
#
# Track frame offsets:
#	187
#	31305
#	52747
#	59835
#	86437
#	105495
#
# Disc length: 1592 seconds
#
# Revision: 3
# Processed by: cddbd v1.5.2PL0 Copyright (c) Steve Scherf et al.
# Submitted via: audiograbber 1.83.01
#
DISCID=43063606
DTITLE=Londonbeat - I've Been Thinking About You
DYEAR=1991
DGENRE=Pop
TTITLE0=I've Been Thinking About You (Def 12'' Mix)
TTITLE1=I've Been Thinking About You (Red Zone Mix)
TTITLE2=I've Been Thinking About You (Reprise)
TTITLE3=I've Been Thinking About You (Vocal Dub)
TTITLE4=I've Been Thinking About You (The Eclipse Mix)
TTITLE5=I've Been Thinking About You (Trak Mix)
EXTD=
EXTT0=
EXTT1=
EXTT2=
EXTT3=
EXTT4=
EXTT5=
PLAYORDER=
